<?xml version="1.0" encoding="iso-8859-1"?>
<!-- Generator: Adobe Illustrator 21.0.0, SVG Export Plug-In . SVG Version: 6.00 Build 0)  -->
<svg version="1.1" id="Capa_1" xmlns="http://www.w3.org/2000/svg" xmlns:xlink="http://www.w3.org/1999/xlink" x="0px" y="0px"
	 viewBox="0 0 512 512" style="enable-background:new 0 0 512 512;" xml:space="preserve">
<g id="XMLID_1736_">
	<g id="XMLID_1737_">
		<g id="XMLID_1738_">
			<path style="fill:#93A3AF;" d="M408,161h-13V82h13c5.523,0,10,4.477,10,10v59C418,156.523,413.523,161,408,161z"/>
			<path style="fill:#93A3AF;" d="M104,252h13v-39h-13c-5.523,0-10,4.477-10,10v19C94,247.523,98.477,252,104,252z"/>
			<path style="fill:#93A3AF;" d="M104,181h13V82h-13c-5.523,0-10,4.477-10,10v79C94,176.523,98.477,181,104,181z"/>
			<path style="fill:#93A3AF;" d="M104,314h13v-39h-13c-5.523,0-10,4.477-10,10v19C94,309.523,98.477,314,104,314z"/>
			<path style="fill:#7B8C98;" d="M114.418,484.5v-457c0-11.046,8.954-20,20-20h243.163c11.046,0,20,8.954,20,20v457
				c0,11.046-8.954,20-20,20H134.418C123.373,504.5,114.418,495.546,114.418,484.5z"/>
			<path id="XMLID_1739_" style="fill:#627687;" d="M397.58,27.5v457c0,11.05-8.95,20-20,20H358c11.05,0,20-8.95,20-20v-457
				c0-11.05-8.95-20-20-20h19.58C388.63,7.5,397.58,16.45,397.58,27.5z"/>
			<rect x="114.418" y="58" style="fill:#7FB7EA;" width="283.163" height="396"/>
			<rect x="378" y="58" style="fill:#5F9EEB;" width="19.582" height="396"/>
		</g>
		<path style="fill:#D3D8DF;" d="M341.352,314H170.648c-7.814,0-14.148-6.334-14.148-14.148v-22.703
			c0-7.814,6.334-14.148,14.148-14.148h170.703c7.814,0,14.148,6.334,14.148,14.148v22.703C355.5,307.666,349.166,314,341.352,314z"
			/>
		<path style="fill:#D3D8DF;" d="M341.352,392H170.648c-7.814,0-14.148-6.334-14.148-14.148v-22.703
			c0-7.814,6.334-14.148,14.148-14.148h170.703c7.814,0,14.148,6.334,14.148,14.148v22.703C355.5,385.666,349.166,392,341.352,392z"
			/>
		<g id="XMLID_1740_">
			<path id="XMLID_1741_" style="fill:#74E2CD;" d="M299.5,174.25c0,5.27-0.94,10.32-2.66,15c-6.11,16.63-22.09,28.5-40.84,28.5
				s-34.73-11.87-40.84-28.5c-1.72-4.68-2.66-9.73-2.66-15c0-24.03,19.48-43.5,43.5-43.5C280.02,130.75,299.5,150.22,299.5,174.25z"
				/>
			<path id="XMLID_1742_" style="fill:#EB5777;" d="M296.84,189.25c-6.11,16.63-22.09,28.5-40.84,28.5s-34.73-11.87-40.84-28.5
				c6.11-16.64,22.09-28.5,40.84-28.5S290.73,172.61,296.84,189.25z"/>
			<g id="XMLID_1743_">
				<circle style="fill:#F8C298;" cx="256" cy="142.5" r="24"/>
			</g>
		</g>
	</g>
	<g id="XMLID_1744_">
		<path id="XMLID_1745_" d="M408,74.5h-2.918v-47c0-15.164-12.336-27.5-27.5-27.5H134.418c-15.164,0-27.5,12.336-27.5,27.5v47H104
			c-9.649,0-17.5,7.851-17.5,17.5v79c0,9.649,7.851,17.5,17.5,17.5h2.918v17H104c-9.649,0-17.5,7.851-17.5,17.5v19
			c0,9.649,7.851,17.5,17.5,17.5h2.918v8H104c-9.649,0-17.5,7.851-17.5,17.5v19c0,9.649,7.851,17.5,17.5,17.5h2.918v60.873
			c0,4.142,3.358,7.5,7.5,7.5s7.5-3.358,7.5-7.5V65.5h268.163v145.881c0,4.142,3.358,7.5,7.5,7.5s7.5-3.358,7.5-7.5V168.5H408
			c9.649,0,17.5-7.851,17.5-17.5V92C425.5,82.351,417.649,74.5,408,74.5z M104,173.5c-1.378,0-2.5-1.122-2.5-2.5V92
			c0-1.378,1.122-2.5,2.5-2.5h2.918v84H104z M104,244.5c-1.378,0-2.5-1.122-2.5-2.5v-19c0-1.378,1.122-2.5,2.5-2.5h2.918v24H104z
			 M104,306.5c-1.378,0-2.5-1.122-2.5-2.5v-19c0-1.378,1.122-2.5,2.5-2.5h2.918v24H104z M121.918,50.5v-23
			c0-6.893,5.607-12.5,12.5-12.5h243.163c6.893,0,12.5,5.607,12.5,12.5v23H121.918z M410.5,151c0,1.378-1.122,2.5-2.5,2.5h-2.918
			v-64H408c1.378,0,2.5,1.122,2.5,2.5V151z"/>
		<path id="XMLID_1752_" d="M397.582,236.542c-4.142,0-7.5,3.358-7.5,7.5V446.5H121.918v-31.467c0-4.142-3.358-7.5-7.5-7.5
			s-7.5,3.358-7.5,7.5V484.5c0,15.164,12.336,27.5,27.5,27.5h155.392c4.142,0,7.5-3.358,7.5-7.5s-3.358-7.5-7.5-7.5H134.418
			c-6.893,0-12.5-5.607-12.5-12.5v-23h268.163v23c0,6.893-5.607,12.5-12.5,12.5h-55.11c-4.142,0-7.5,3.358-7.5,7.5
			s3.358,7.5,7.5,7.5h55.11c15.164,0,27.5-12.336,27.5-27.5V244.042C405.082,239.9,401.724,236.542,397.582,236.542z"/>
		<path id="XMLID_1753_" d="M275.582,26.833h-39.163c-4.142,0-7.5,3.358-7.5,7.5s3.358,7.5,7.5,7.5h39.163
			c4.142,0,7.5-3.358,7.5-7.5S279.724,26.833,275.582,26.833z"/>
		<path id="XMLID_1754_" d="M149,277.148v22.703c0,11.937,9.711,21.648,21.648,21.648h170.703c11.937,0,21.648-9.711,21.648-21.648
			v-22.703c0-11.937-9.711-21.648-21.648-21.648H170.648C158.711,255.5,149,265.211,149,277.148z M348,277.148v22.703
			c0,3.666-2.982,6.648-6.648,6.648H170.648c-3.666,0-6.648-2.982-6.648-6.648v-22.703c0-3.666,2.982-6.648,6.648-6.648h170.703
			C345.018,270.5,348,273.482,348,277.148z"/>
		<path id="XMLID_1757_" d="M149,377.852c0,11.937,9.711,21.648,21.648,21.648h170.703c11.937,0,21.648-9.711,21.648-21.648v-22.703
			c0-11.937-9.711-21.648-21.648-21.648H170.648c-11.937,0-21.648,9.711-21.648,21.648V377.852z M164,355.148
			c0-3.666,2.982-6.648,6.648-6.648h170.703c3.666,0,6.648,2.982,6.648,6.648v22.703c0,3.666-2.982,6.648-6.648,6.648H170.648
			c-3.666,0-6.648-2.982-6.648-6.648V355.148z"/>
		<path id="XMLID_1760_" d="M190.824,295.999l0.109,0.001c0.023,0,0.045,0,0.068,0c4.11,0,7.461-3.314,7.498-7.433
			c0.037-4.142-3.291-7.53-7.433-7.566L190.958,281c-4.157-0.051-7.529,3.291-7.566,7.433S186.682,295.962,190.824,295.999z"/>
		<path id="XMLID_1761_" d="M218.933,295.999l0.109,0.001c0.023,0,0.045,0,0.068,0c4.11,0,7.461-3.314,7.498-7.433
			c0.037-4.142-3.291-7.53-7.433-7.566L219.067,281c-4.125-0.051-7.53,3.291-7.566,7.433
			C211.463,292.575,214.791,295.962,218.933,295.999z"/>
		<path id="XMLID_1762_" d="M247.042,295.999l0.11,0.001c0.023,0,0.045,0,0.068,0c4.111,0,7.461-3.314,7.498-7.433
			c0.037-4.142-3.291-7.53-7.433-7.566l-0.11-0.001c-0.023,0-0.045,0-0.068,0c-4.111,0-7.461,3.314-7.498,7.433
			C239.573,292.575,242.901,295.962,247.042,295.999z"/>
		<path id="XMLID_1763_" d="M275.152,295.999l0.109,0.001c0.023,0,0.045,0,0.068,0c4.11,0,7.461-3.314,7.498-7.433
			c0.037-4.142-3.291-7.53-7.433-7.566L275.286,281c-4.149-0.051-7.53,3.291-7.566,7.433
			C267.683,292.575,271.01,295.962,275.152,295.999z"/>
		<path id="XMLID_1764_" d="M303.262,295.999l0.109,0.001c0.023,0,0.045,0,0.068,0c4.11,0,7.461-3.314,7.498-7.433
			c0.037-4.142-3.291-7.53-7.433-7.566L303.396,281c-4.117-0.051-7.53,3.291-7.566,7.433
			C295.792,292.575,299.12,295.962,303.262,295.999z"/>
		<path id="XMLID_1765_" d="M190.824,373.999l0.109,0.001c0.023,0,0.045,0,0.068,0c4.11,0,7.461-3.314,7.498-7.433
			c0.037-4.142-3.291-7.53-7.433-7.566L190.958,359c-0.023,0-0.045,0-0.068,0c-4.11,0-7.461,3.314-7.498,7.433
			C183.354,370.575,186.682,373.962,190.824,373.999z"/>
		<path id="XMLID_1766_" d="M218.933,373.999l0.109,0.001c0.023,0,0.045,0,0.068,0c4.11,0,7.461-3.314,7.498-7.433
			c0.037-4.142-3.291-7.53-7.433-7.566L219.067,359c-0.023,0-0.045,0-0.068,0c-4.11,0-7.461,3.314-7.498,7.433
			C211.463,370.575,214.791,373.962,218.933,373.999z"/>
		<path id="XMLID_1767_" d="M247.042,373.999l0.11,0.001c0.023,0,0.045,0,0.068,0c4.111,0,7.461-3.314,7.498-7.433
			c0.037-4.142-3.291-7.53-7.433-7.566l-0.11-0.001c-0.023,0-0.045,0-0.068,0c-4.111,0-7.461,3.314-7.498,7.433
			C239.573,370.575,242.901,373.962,247.042,373.999z"/>
		<path id="XMLID_1768_" d="M256,225.248c21.833,0,40.498-13.794,47.758-33.121c0.074-0.179,0.144-0.36,0.205-0.544
			c1.963-5.414,3.038-11.251,3.038-17.334c0-16.367-7.795-31.582-20.945-41.183C282.036,120.291,270.083,111,256,111
			c-14.086,0-26.04,9.294-30.057,22.071C212.804,142.671,205,157.913,205,174.248c0,6.084,1.075,11.921,3.038,17.335
			c0.06,0.183,0.129,0.362,0.203,0.54C215.5,211.452,234.166,225.248,256,225.248z M230.058,160.34
			c-3.42,2.016-6.577,4.41-9.414,7.138c0.959-5.017,2.968-9.748,5.875-13.893C227.427,155.99,228.62,158.255,230.058,160.34z
			 M256,210.248c-14.501,0-27.019-8.623-32.717-21.007c3.812-8.328,10.611-14.864,19.12-18.329C246.522,172.89,251.134,174,256,174
			c4.863,0,9.471-1.109,13.588-3.085c8.416,3.445,15.32,10.066,19.127,18.331C283.016,201.626,270.5,210.248,256,210.248z
			 M285.482,153.582c2.924,4.167,4.944,8.924,5.895,13.978c-2.854-2.753-6.028-5.172-9.446-7.204
			C283.375,158.265,284.572,155.994,285.482,153.582z M256,126c9.098,0,16.5,7.402,16.5,16.5S265.098,159,256,159
			s-16.5-7.402-16.5-16.5S246.902,126,256,126z"/>
	</g>
</g>
<g>
</g>
<g>
</g>
<g>
</g>
<g>
</g>
<g>
</g>
<g>
</g>
<g>
</g>
<g>
</g>
<g>
</g>
<g>
</g>
<g>
</g>
<g>
</g>
<g>
</g>
<g>
</g>
<g>
</g>
</svg>
